<svg width="144" height="144" viewBox="0 0 144 144" fill="none" xmlns="http://www.w3.org/2000/svg">
<g opacity="0.5" filter="url(#filter0_dd_12_2798)">
<rect x="12" y="12" width="120" height="120" rx="20" fill="#0B4A6F"/>
</g>
<path d="M52 27H51C42.5992 27 38.3988 27 35.1901 28.6349C32.3677 30.073 30.073 32.3677 28.6349 35.1901C27 38.3988 27 42.5992 27 51V52M52 117H51C42.5992 117 38.3988 117 35.1901 115.365C32.3677 113.927 30.073 111.632 28.6349 108.81C27 105.601 27 101.401 27 93V92M117 52V51C117 42.5992 117 38.3988 115.365 35.1901C113.927 32.3677 111.632 30.073 108.81 28.6349C105.601 27 101.401 27 93 27H92M117 92V93C117 101.401 117 105.601 115.365 108.81C113.927 111.632 111.632 113.927 108.81 115.365C105.601 117 101.401 117 93 117H92M49.5 52V59.5M94.5 52V59.5M67 75.0005C71 75.0005 74.5 71.5005 74.5 67.5005V52M88.001 87.9998C79.001 96.9998 64.501 96.9998 55.501 87.9998" stroke="white" stroke-width="4" stroke-linecap="round" stroke-linejoin="round"/>
<defs>
<filter id="filter0_dd_12_2798" x="0" y="0" width="144" height="144" filterUnits="userSpaceOnUse" color-interpolation-filters="sRGB">
<feFlood flood-opacity="0" result="BackgroundImageFix"/>
<feColorMatrix in="SourceAlpha" type="matrix" values="0 0 0 0 0 0 0 0 0 0 0 0 0 0 0 0 0 0 127 0" result="hardAlpha"/>
<feMorphology radius="2" operator="erode" in="SourceAlpha" result="effect1_dropShadow_12_2798"/>
<feOffset dy="4"/>
<feGaussianBlur stdDeviation="3"/>
<feColorMatrix type="matrix" values="0 0 0 0 0.00643134 0 0 0 0 0.41611 0 0 0 0 0.636706 0 0 0 0.25 0"/>
<feBlend mode="normal" in2="BackgroundImageFix" result="effect1_dropShadow_12_2798"/>
<feColorMatrix in="SourceAlpha" type="matrix" values="0 0 0 0 0 0 0 0 0 0 0 0 0 0 0 0 0 0 127 0" result="hardAlpha"/>
<feMorphology radius="4" operator="erode" in="SourceAlpha" result="effect2_dropShadow_12_2798"/>
<feOffset/>
<feGaussianBlur stdDeviation="8"/>
<feColorMatrix type="matrix" values="0 0 0 0 0.00643134 0 0 0 0 0.41611 0 0 0 0 0.636706 0 0 0 0.25 0"/>
<feBlend mode="normal" in2="effect1_dropShadow_12_2798" result="effect2_dropShadow_12_2798"/>
<feBlend mode="normal" in="SourceGraphic" in2="effect2_dropShadow_12_2798" result="shape"/>
</filter>
</defs>
</svg>
