<svg width="56" height="56" viewBox="0 0 56 56" fill="none" xmlns="http://www.w3.org/2000/svg">
<rect width="56" height="56" rx="12" fill="#0086C9"/>
<path d="M32.875 31.2495C32.875 26.7622 29.2373 23.1245 24.75 23.1245C24.2414 23.1245 23.7438 23.1712 23.2611 23.2606C23.1717 23.7433 23.125 24.241 23.125 24.7495C23.125 29.2368 26.7627 32.8745 31.25 32.8745C31.7586 32.8745 32.2562 32.8278 32.7389 32.7384C32.8283 32.2557 32.875 31.7581 32.875 31.2495Z" fill="white"/>
<path opacity="0.8" fill-rule="evenodd" clip-rule="evenodd" d="M32.7389 32.7389C32.0395 36.5151 28.7288 39.375 24.75 39.375C20.2627 39.375 16.625 35.7373 16.625 31.25C16.625 27.2712 19.4849 23.9605 23.2611 23.2611C23.1717 23.7438 23.125 24.2414 23.125 24.75C23.125 29.2373 26.7627 32.875 31.25 32.875C31.7586 32.875 32.2562 32.8283 32.7389 32.7389Z" fill="white"/>
<path opacity="0.6" fill-rule="evenodd" clip-rule="evenodd" d="M32.8749 31.2504C32.8749 26.7631 29.2372 23.1254 24.7499 23.1254C24.2413 23.1254 23.7437 23.1721 23.261 23.2615C23.9603 19.4852 27.2711 16.6254 31.2499 16.6254C35.7372 16.6254 39.3749 20.2631 39.3749 24.7504C39.3749 28.7291 36.515 32.0399 32.7388 32.7393C32.8281 32.2566 32.8749 31.7589 32.8749 31.2504Z" fill="white"/>
</svg>
